<?xml version="1.0" standalone="no"?>
<!DOCTYPE svg PUBLIC "-//W3C//DTD SVG 20010904//EN"
 "http://www.w3.org/TR/2001/REC-SVG-20010904/DTD/svg10.dtd">
<svg version="1.0" xmlns="http://www.w3.org/2000/svg"
 width="2401.000000pt" height="2401.000000pt" viewBox="0 0 2401.000000 2401.000000"
 preserveAspectRatio="xMidYMid meet">

<g transform="translate(0.000000,2401.000000) scale(0.100000,-0.100000)"
fill="#000000" stroke="none">
<path d="M0 12000 l0 -12000 12000 0 12000 0 0 12000 0 12000 -12000 0 -12000
0 0 -12000z m14455 2450 l-1060 -1060 -2467 0 -2468 0 0 1060 0 1060 3527 0
3528 0 -1060 -1060z m-2700 -2470 l-1060 -1060 -1117 0 -1118 0 0 1060 0 1060
2177 0 2178 0 -1060 -1060z m3802 -112 l-6 -1172 -1098 -1098 -1098 -1098
-2457 0 -2456 0 4 763 c2 419 7 908 10 1086 l6 324 912 -6 c501 -4 1546 -10
2322 -14 l1411 -6 6 423 c4 233 7 771 7 1197 l0 773 1222 0 1221 0 -6 -1172z"/>
</g>
</svg>
